<?xml version="1.0" standalone="no"?>
<!DOCTYPE svg PUBLIC "-//W3C//DTD SVG 20010904//EN"
 "http://www.w3.org/TR/2001/REC-SVG-20010904/DTD/svg10.dtd">
<svg version="1.0" xmlns="http://www.w3.org/2000/svg"
 width="512.000000pt" height="512.000000pt" viewBox="0 0 512.000000 512.000000"
 preserveAspectRatio="xMidYMid meet">
<metadata>
Created by potrace 1.14, written by Peter Selinger 2001-2017
</metadata>
<g transform="translate(0.000000,512.000000) scale(0.100000,-0.100000)"
fill="#000000" stroke="none">
<path d="M170 4800 c-73 -21 -117 -60 -149 -130 -20 -43 -21 -61 -18 -400 2
-388 1 -382 63 -444 56 -55 95 -68 211 -68 95 1 151 21 199 73 51 55 64 104
64 234 l0 115 348 0 347 0 325 -541 c179 -298 334 -557 346 -577 12 -21 40
-67 63 -105 l41 -67 0 -563 0 -563 -62 7 c-35 4 -77 10 -94 13 -17 3 -48 8
-69 11 -87 11 -124 16 -190 27 -38 6 -106 12 -150 12 -93 1 -139 -18 -197 -82
-40 -44 -47 -61 -118 -292 -28 -91 -59 -187 -68 -215 -9 -27 -17 -54 -18 -60
-1 -5 -41 -136 -89 -290 -63 -201 -87 -295 -87 -331 0 -145 134 -265 277 -248
93 10 178 71 211 149 10 25 168 528 248 790 9 29 17 40 32 39 25 -1 122 -13
148 -19 12 -2 44 -7 71 -10 28 -3 176 -24 330 -46 154 -22 296 -42 315 -45 68
-10 192 -4 250 11 8 2 38 7 65 10 28 3 61 7 75 9 14 3 43 7 65 10 22 4 51 8
65 11 14 2 46 7 72 9 26 3 78 10 115 16 102 16 114 18 163 24 25 3 72 10 105
16 65 11 68 9 84 -45 84 -287 248 -789 266 -817 62 -94 187 -138 295 -103 71
22 153 111 167 182 15 76 7 113 -97 438 -27 84 -52 164 -160 515 -76 245 -80
255 -125 303 -47 50 -102 71 -185 71 -41 0 -95 -3 -120 -7 -25 -4 -94 -15
-155 -23 -60 -9 -121 -18 -135 -20 -14 -2 -49 -7 -77 -10 l-53 -6 0 600 0 600
162 269 c88 147 168 280 177 296 9 15 93 154 186 309 94 155 172 287 174 292
2 6 10 19 19 29 14 16 43 17 347 17 l333 0 4 -132 c5 -146 13 -170 70 -225 51
-50 100 -65 204 -65 101 0 143 15 201 72 58 57 63 94 63 464 0 312 -2 334 -21
376 -27 60 -54 88 -113 115 -69 33 -203 33 -272 1 -99 -47 -130 -113 -133
-281 -1 -60 -4 -112 -7 -115 -3 -2 -152 -5 -332 -5 l-326 0 -33 33 c-50 49
-114 75 -170 67 -58 -8 -115 -37 -141 -72 l-20 -28 -979 0 -978 0 -40 40 c-85
85 -206 82 -293 -7 l-33 -32 -343 -1 -344 0 -4 131 c-3 125 -4 133 -33 180
-19 30 -49 60 -79 79 -45 27 -58 30 -140 31 -50 1 -102 -1 -116 -6z m2944
-1145 l-316 -525 -227 0 -227 0 -218 363 c-120 199 -222 369 -227 377 -5 8
-45 75 -90 149 -44 73 -83 140 -86 147 -4 12 129 14 851 14 l855 0 -315 -525z"/>
<path d="M2535 4108 c-129 -16 -248 -108 -308 -236 -27 -59 -31 -77 -31 -157
0 -107 23 -177 84 -253 47 -58 98 -95 177 -127 83 -34 213 -31 296 7 262 122
326 451 125 651 -96 96 -205 132 -343 115z"/>
</g>
</svg>
